<svg width="12" height="18" viewBox="0 0 12 18" fill="none" xmlns="http://www.w3.org/2000/svg">
<path d="M10.2902 11.29L6.00019 15.59L1.71019 11.29C1.52188 11.1017 1.26649 10.9959 1.00019 10.9959C0.733884 10.9959 0.478489 11.1017 0.290185 11.29C0.101882 11.4783 -0.00390625 11.7337 -0.00390625 12C-0.00390625 12.2663 0.101882 12.5217 0.290185 12.71L5.29019 17.71C5.38315 17.8037 5.49375 17.8781 5.61561 17.9289C5.73747 17.9797 5.86817 18.0058 6.00019 18.0058C6.1322 18.0058 6.2629 17.9797 6.38476 17.9289C6.50662 17.8781 6.61722 17.8037 6.71019 17.71L11.7102 12.71C11.8034 12.6168 11.8774 12.5061 11.9278 12.3842C11.9783 12.2624 12.0043 12.1319 12.0043 12C12.0043 11.8681 11.9783 11.7376 11.9278 11.6158C11.8774 11.4939 11.8034 11.3832 11.7102 11.29C11.6169 11.1968 11.5063 11.1228 11.3844 11.0723C11.2626 11.0219 11.132 10.9959 11.0002 10.9959C10.8683 10.9959 10.7378 11.0219 10.6159 11.0723C10.4941 11.1228 10.3834 11.1968 10.2902 11.29ZM1.71019 6.71L6.00019 2.41L10.2902 6.71C10.3831 6.80373 10.4937 6.87812 10.6156 6.92889C10.7375 6.97966 10.8682 7.0058 11.0002 7.0058C11.1322 7.0058 11.2629 6.97966 11.3848 6.92889C11.5066 6.87812 11.6172 6.80373 11.7102 6.71C11.8039 6.61704 11.8783 6.50644 11.9291 6.38458C11.9798 6.26272 12.006 6.13201 12.006 6C12.006 5.86799 11.9798 5.73728 11.9291 5.61542C11.8783 5.49356 11.8039 5.38296 11.7102 5.29L6.71019 0.29C6.61722 0.196272 6.50662 0.121877 6.38476 0.0711086C6.2629 0.0203399 6.1322 -0.00579834 6.00019 -0.00579834C5.86817 -0.00579834 5.73747 0.0203399 5.61561 0.0711086C5.49375 0.121877 5.38315 0.196272 5.29019 0.29L0.290185 5.29C0.101882 5.4783 -0.00390625 5.7337 -0.00390625 6C-0.00390625 6.2663 0.101882 6.5217 0.290185 6.71C0.478489 6.8983 0.733884 7.00409 1.00019 7.00409C1.26649 7.00409 1.52188 6.8983 1.71019 6.71Z" fill="#EDE6E6"/>
</svg>
